PathFileType	4	(X/Y/Z)	Patient5_TMGait_0pt45_1_left_10.trc.trc
DataRate	CameraRate	NumFrames	NumMarkers	Units	OrigDataRate	OrigDataStartFrame	OrigNumFrames
55.776892430279	55.776892430279	5	32	mm	55.776892430279	36	       141
Frame#	Time	R.ASIS			L.ASIS			Chest			R.Shoulder			Neck			L.Shoulder			L.Elbow			L.Wrist			R.Elbow			R.Wrist			L.Thigh.Superior			L.Thigh.Lateral			L.Thigh.Inferior			L.Patella			L.Shank.Superior			L.Shank.Lateral			L.Shank.Inferior			L.Heel			L.Midfoot.Lateral			L.Midfoot.Superior			L.Toe			R.Thigh.Superior			R.Thigh.Lateral			R.Thigh.Inferior			R.Patella			R.Shank.Superior			R.Shank.Lateral			R.Shank.Inferior			R.Heel			R.Midfoot.Lateral			R.Midfoot.Superior			R.Toe			
		X1	Y1	Z1	X2	Y2	Z2	X3	Y3	Z3	X4	Y4	Z4	X5	Y5	Z5	X6	Y6	Z6	X7	Y7	Z7	X8	Y8	Z8	X9	Y9	Z9	X10	Y10	Z10	X11	Y11	Z11	X12	Y12	Z12	X13	Y13	Z13	X14	Y14	Z14	X15	Y15	Z15	X16	Y16	Z16	X17	Y17	Z17	X18	Y18	Z18	X19	Y19	Z19	X20	Y20	Z20	X21	Y21	Z21	X22	Y22	Z22	X23	Y23	Z23	X24	Y24	Z24	X25	Y25	Z25	X26	Y26	Z26	X27	Y27	Z27	X28	Y28	Z28	X29	Y29	Z29	X30	Y30	Z30	X31	Y31	Z31	X32	Y32	Z32	

36	15.777500000000	1062.314054758115	983.855656602108	583.739643513940	1100.298110617295	957.343625863464	351.116644585077	1169.082582899431	1432.857978565140	471.760797112355	1049.402623882225	1501.524246159521	621.826824072097	1049.121493742556	1557.825725883931	434.893039204786	1135.746872365771	1497.964914438458	267.188581569323	1063.730489137962	1182.750673267435	132.294714959155	1166.164201576211	913.306295922209	161.084494854598	952.268338311336	1186.619094756195	761.307665557914	1177.446116278987	1006.399967182357	726.085821257823	1153.285685352958	757.055321022015	346.005866341932	1100.688589208536	672.898456113645	298.674732715221	1175.270741850385	633.553258118115	375.478853101449	1198.160468719175	517.587296196807	387.578671893484	1159.486307591891	408.061614718045	401.928336341793	1112.015859116125	332.844793354207	316.025128515881	1137.107349514495	282.315433960425	406.631704425455	1023.333536322832	49.126279512523	399.676836267568	1114.641667198988	27.378563128223	342.230436969223	1209.414109191578	89.389436014114	392.235864671197	1316.948865815360	45.433907340207	400.091397378239	1055.895645942247	746.195611997556	618.374465323650	953.947601730237	681.341696658215	664.905498730339	1037.661562457575	613.633584735129	609.720368069651	1017.374443711413	511.394115734551	642.736807218413	936.891001634161	422.068573255095	598.398265949151	836.901335364439	391.027480700270	671.972511036984	863.271315003156	302.556416749688	595.241742019277	657.291577644544	143.866782339724	556.716731708282	717.395738726157	78.461208687164	623.347483440561	838.963834542972	101.381700693205	609.007637010343	917.249571068350	40.924989674251	597.578864351407	
37	15.795428571429	1062.133773014987	987.062778337324	579.781122337183	1102.153654584416	958.477430313277	348.275421047481	1169.836812982280	1434.534426566217	469.483875729345	1047.385304025470	1503.578678580318	617.072575166991	1050.947387491880	1559.778409770379	430.120461856134	1141.175834970414	1499.659865465421	264.448523266049	1073.878972297964	1184.360676780720	127.594408624770	1177.518635315457	915.721962549256	158.840098824166	948.000186794753	1188.695844709129	754.967890846050	1173.295655218687	1008.160756713990	722.817009712820	1152.496424664880	757.278810393289	343.615192391787	1098.761863289439	673.581972466425	295.258194461300	1172.403822923830	633.068359898414	372.173652867553	1193.507360677716	516.641231473151	383.740462683953	1153.914664533813	407.766069256940	398.657738636385	1105.130525419322	332.508206849421	313.549160071219	1130.718337733015	282.280077902254	404.235238952331	1015.483283043985	49.184336712092	399.286901454120	1106.786528808495	27.238793712336	341.925178951703	1201.646947086076	89.393776209938	391.754694785934	1309.064680263276	45.438013045177	400.026385637470	1061.496026317041	750.573105683281	618.978967619091	961.823039661877	683.755383740750	665.819388540680	1048.239539637782	617.398642465315	612.817815711920	1029.350440505376	513.975160203948	646.635565938400	946.726793876182	424.824569674193	601.625475784032	845.452606061033	396.337527332959	675.000430855095	868.847863882222	307.712419335214	597.425915246335	658.331357020449	159.847502825550	557.577779873276	714.072465150777	89.951112591642	623.316216729425	836.982037829063	106.334343513474	610.330614812401	911.469939617674	40.481633436248	598.166266239109	
38	15.813357142857	1061.822930860009	990.006763475794	576.446757299940	1103.543671004027	959.530178333358	345.497039824052	1170.128689806849	1436.054757538527	467.157490138542	1045.055738346357	1505.502069749548	612.308436589416	1052.385422625141	1561.564462974466	425.429933857145	1145.916127577075	1501.111805367058	261.758721728044	1083.844374236824	1185.656223536139	123.148781144907	1188.691897154093	917.824152411180	156.755059625549	943.510569929374	1190.573479111815	748.543406852573	1168.945288058749	1009.763513406064	719.714077434869	1151.258893095878	757.526891570582	341.141599999358	1096.409394013317	674.334928043279	292.015095572816	1169.333645137305	632.655277264823	368.783710551092	1188.686986731808	515.723098275444	379.766504335921	1148.185867288846	407.516089245172	395.338190957635	1097.906581460435	332.292542320668	311.066293941205	1124.227599427730	282.286930703828	401.798963754454	1007.504211591754	49.283100045622	398.896369423469	1098.799887532860	27.093307042004	341.622978442098	1193.785627696370	89.359443755772	391.251639739980	1301.056770900531	45.379101570800	399.982830516285	1066.740399640063	755.111139639457	619.949373078831	969.616065606877	686.368480337866	667.041654804078	1058.590290059704	621.494856089680	616.010626826485	1041.194702457056	517.007507541146	650.577414505699	956.729521932505	428.077621747326	604.939079260648	854.269211522193	402.086046919011	678.099403621463	874.826334035473	313.372262779799	599.629870823681	660.474873178423	176.248482069835	558.289213816941	711.559288690254	102.189492489799	623.242766258722	835.555839256347	112.045336438217	611.785461439274	906.123612578049	40.149607377782	599.158021640265	
39	15.831285714286	1061.353252808183	992.727438157532	573.727367706322	1104.525138076531	960.490055244170	342.722026210201	1170.014092581616	1437.478880858098	464.751547182522	1042.500611717541	1507.343353709986	607.575366703917	1053.449310862704	1563.219442580173	420.845590388472	1149.887597888724	1502.374402904318	259.080063242440	1093.397951073518	1186.664392011505	119.032972735690	1199.625338327578	919.701341666189	154.812578980571	938.705453769115	1192.326756405666	742.021290481429	1164.338005935502	1011.311770211013	716.778098549853	1149.616725356316	757.682658292418	338.384106042472	1093.559971729926	675.074806090939	288.978338143064	1166.087492076832	632.259172876298	365.270642695019	1183.749391514821	514.855645903020	375.758632807959	1142.360866487235	407.324240266634	392.095494701825	1090.445506857441	332.207950661263	308.689505578116	1117.668985981102	282.342515514872	399.421103617607	999.426800005065	49.408693025663	398.518002777894	1090.708642710761	26.957764120905	341.333134240372	1185.836447612608	89.319944286368	390.733077862976	1292.953497839103	45.302355876015	399.923404027271	1071.430906149432	759.764325571380	621.036169585370	977.019298241950	689.254544453135	668.420319833503	1068.339088680936	625.901675509952	619.106398602915	1052.488969118904	520.517016479549	654.411424593560	966.512535994622	431.778386153949	608.193668788756	862.948929981713	408.150158251417	681.088620819648	880.989624163566	319.336873067724	601.782092792762	663.596939650860	192.161688688231	558.800512353323	710.022476134100	114.527952753515	623.221382168686	834.859117711818	118.216969520537	613.449871049467	901.567405611841	40.078079998810	600.757088456657	
40	15.849214285714	1060.709481978639	995.265688322552	571.528900349758	1105.141017375587	961.336565822047	339.909170396602	1169.566343454102	1438.857380715448	462.245862206902	1039.810433871890	1509.143427813372	602.908733876493	1054.170948307915	1564.777568266085	416.383653256680	1153.076007850862	1503.504890856509	256.377375558029	1102.304272920604	1187.427289914993	115.296278892787	1210.251856031366	921.462427927266	152.994235069066	933.552652640859	1194.036369736155	735.429375939397	1159.435532502224	1012.882453325402	713.975428202088	1147.572035418775	757.660120621337	335.275744288625	1090.173117352698	675.745587517079	286.181707507216	1162.642638034798	631.826787185579	361.662822141084	1178.681151890386	514.056008726740	371.824198625877	1136.452337617818	407.198014667201	389.036588134943	1082.824385633592	332.246379682981	306.510647016900	1111.050396756974	282.446593543598	397.182964177078	991.290481378825	49.552723429019	398.159744084921	1082.551382564015	26.840655699106	341.067331644239	1177.818962622251	89.300245548826	390.210605329200	1284.790647026514	45.247198124369	399.830446651753	1075.436225547010	764.468307217857	621.990729087767	983.758044973091	692.432698366127	669.797242290090	1077.152572694614	630.547365458909	621.936782507251	1062.837506640868	524.466467381325	658.002574345546	975.735987243879	435.802910954906	611.283047344404	871.131089874942	414.291264173468	683.817776028428	887.178702301986	325.294873747497	603.858378219604	667.600482908817	206.447564841212	559.121664773570	709.736229176912	126.106455748818	623.433667275094	835.196286493481	124.430116119149	615.474114406205	898.405291716425	40.415901295724	603.268188678916	
